<svg xmlns="http://www.w3.org/2000/svg" xmlns:xlink="http://www.w3.org/1999/xlink" width="600" zoomAndPan="magnify" viewBox="0 0 450 525.000007" height="700" preserveAspectRatio="xMidYMid meet" version="1.0"><defs><clipPath id="6f1b881771"><path d="M 75.285156 74.859375 L 104.480469 74.859375 L 104.480469 104.050781 L 75.285156 104.050781 Z M 75.285156 74.859375 " clip-rule="nonzero"/></clipPath><clipPath id="d614b0bb6a"><path d="M 75.285156 102.660156 L 104.117188 102.660156 L 104.117188 364 L 75.285156 364 Z M 75.285156 102.660156 " clip-rule="nonzero"/></clipPath><clipPath id="20c087623d"><path d="M 345.882812 102.660156 L 374.714844 102.660156 L 374.714844 364 L 345.882812 364 Z M 345.882812 102.660156 " clip-rule="nonzero"/></clipPath><clipPath id="eb1825bc0c"><path d="M 79 98 L 235 98 L 235 254 L 79 254 Z M 79 98 " clip-rule="nonzero"/></clipPath><clipPath id="1271e9f1ba"><path d="M 79.402344 118.507812 L 99.882812 98.03125 L 234.691406 232.84375 L 214.214844 253.320312 Z M 79.402344 118.507812 " clip-rule="nonzero"/></clipPath><clipPath id="cf2cbcef90"><path d="M 79.402344 118.507812 L 99.71875 98.195312 L 234.457031 232.933594 L 214.144531 253.246094 Z M 79.402344 118.507812 " clip-rule="nonzero"/></clipPath><clipPath id="69cb5cb787"><path d="M 345.882812 74.484375 L 375.078125 74.484375 L 375.078125 103.675781 L 345.882812 103.675781 Z M 345.882812 74.484375 " clip-rule="nonzero"/></clipPath><clipPath id="85a300dfc5"><path d="M 207 98 L 371 98 L 371 262 L 207 262 Z M 207 98 " clip-rule="nonzero"/></clipPath><clipPath id="a1329e5cc1"><path d="M 350.398438 98.195312 L 370.875 118.671875 L 227.53125 262.015625 L 207.054688 241.539062 Z M 350.398438 98.195312 " clip-rule="nonzero"/></clipPath><clipPath id="212b25a853"><path d="M 350.398438 98.195312 L 370.710938 118.507812 L 227.902344 261.316406 L 207.589844 241.003906 Z M 350.398438 98.195312 " clip-rule="nonzero"/></clipPath><clipPath id="478507f154"><path d="M 210.585938 107.601562 L 239.414062 107.601562 L 239.414062 369 L 210.585938 369 Z M 210.585938 107.601562 " clip-rule="nonzero"/></clipPath><clipPath id="e30b5aeca1"><path d="M 211 80 L 239.777344 80 L 239.777344 108 L 211 108 Z M 211 80 " clip-rule="nonzero"/></clipPath><clipPath id="dda129665d"><path d="M 210.585938 79.425781 L 239.777344 79.425781 L 239.777344 108.621094 L 210.585938 108.621094 Z M 210.585938 79.425781 " clip-rule="nonzero"/></clipPath><clipPath id="aa65c5997f"><path d="M 139 348 L 240 348 L 240 449 L 139 449 Z M 139 348 " clip-rule="nonzero"/></clipPath><clipPath id="e40b4aeb39"><path d="M 219.101562 348.613281 L 239.578125 369.089844 L 159.375 449.296875 L 138.898438 428.816406 Z M 219.101562 348.613281 " clip-rule="nonzero"/></clipPath><clipPath id="41d58197be"><path d="M 219.101562 348.613281 L 239.414062 368.925781 L 159.847656 448.492188 L 139.535156 428.179688 Z M 219.101562 348.613281 " clip-rule="nonzero"/></clipPath><clipPath id="011fa24d63"><path d="M 75 343 L 180 343 L 180 448 L 75 448 Z M 75 343 " clip-rule="nonzero"/></clipPath><clipPath id="3f4416d9a9"><path d="M 75.285156 363.828125 L 95.761719 343.351562 L 181.085938 428.675781 L 160.609375 449.152344 Z M 75.285156 363.828125 " clip-rule="nonzero"/></clipPath><clipPath id="f4a5cf2d79"><path d="M 75.285156 363.828125 L 95.597656 343.515625 L 179.539062 427.457031 L 159.226562 447.769531 Z M 75.285156 363.828125 " clip-rule="nonzero"/></clipPath><clipPath id="9f348522de"><path d="M 346 363.167969 L 374 363.167969 L 374 392 L 346 392 Z M 346 363.167969 " clip-rule="nonzero"/></clipPath><clipPath id="239a5cc9b6"><path d="M 345.507812 363.167969 L 374.703125 363.167969 L 374.703125 392.359375 L 345.507812 392.359375 Z M 345.507812 363.167969 " clip-rule="nonzero"/></clipPath></defs><path fill="#00c2cb" d="M 76.011719 75.675781 L 76.011719 103.414062 L 103.753906 103.414062 Z M 76.011719 75.675781 " fill-opacity="1" fill-rule="nonzero"/><g clip-path="url(#6f1b881771)"><path fill="#00c2cb" d="M 103.753906 104.050781 L 76.011719 104.050781 C 75.558594 104.050781 75.285156 103.777344 75.285156 103.414062 L 75.285156 75.675781 C 75.285156 75.402344 75.46875 75.128906 75.738281 75.039062 C 75.921875 74.859375 76.285156 74.949219 76.46875 75.128906 L 104.207031 102.871094 C 104.386719 103.050781 104.480469 103.324219 104.386719 103.597656 C 104.207031 103.871094 104.023438 104.050781 103.753906 104.050781 Z M 76.648438 102.6875 L 102.023438 102.6875 L 76.648438 77.3125 Z M 76.648438 102.6875 " fill-opacity="1" fill-rule="nonzero"/></g><g clip-path="url(#d614b0bb6a)"><path fill="#00c2cb" d="M 75.285156 102.660156 L 104.246094 102.660156 L 104.246094 363.296875 L 75.285156 363.296875 Z M 75.285156 102.660156 " fill-opacity="1" fill-rule="nonzero"/></g><g clip-path="url(#20c087623d)"><path fill="#00c2cb" d="M 345.882812 102.660156 L 374.84375 102.660156 L 374.84375 363.296875 L 345.882812 363.296875 Z M 345.882812 102.660156 " fill-opacity="1" fill-rule="nonzero"/></g><g clip-path="url(#eb1825bc0c)"><g clip-path="url(#1271e9f1ba)"><g clip-path="url(#cf2cbcef90)"><path fill="#00c2cb" d="M 79.402344 118.507812 L 99.882812 98.03125 L 234.691406 232.84375 L 214.214844 253.320312 Z M 79.402344 118.507812 " fill-opacity="1" fill-rule="nonzero"/></g></g></g><path fill="#00c2cb" d="M 346.703125 102.949219 L 374.441406 102.949219 L 374.441406 75.210938 Z M 346.703125 102.949219 " fill-opacity="1" fill-rule="nonzero"/><g clip-path="url(#69cb5cb787)"><path fill="#00c2cb" d="M 375.078125 75.210938 L 375.078125 102.949219 C 375.078125 103.40625 374.804688 103.675781 374.441406 103.675781 L 346.703125 103.675781 C 346.429688 103.675781 346.15625 103.496094 346.066406 103.222656 C 345.882812 103.039062 345.976562 102.675781 346.15625 102.496094 L 373.894531 74.757812 C 374.078125 74.574219 374.351562 74.484375 374.625 74.574219 C 374.894531 74.757812 375.078125 74.9375 375.078125 75.210938 Z M 373.714844 102.3125 L 373.714844 76.9375 L 348.339844 102.3125 Z M 373.714844 102.3125 " fill-opacity="1" fill-rule="nonzero"/></g><g clip-path="url(#85a300dfc5)"><g clip-path="url(#a1329e5cc1)"><g clip-path="url(#212b25a853)"><path fill="#00c2cb" d="M 350.398438 98.195312 L 370.875 118.671875 L 227.53125 262.015625 L 207.054688 241.539062 Z M 350.398438 98.195312 " fill-opacity="1" fill-rule="nonzero"/></g></g></g><g clip-path="url(#478507f154)"><path fill="#00c2cb" d="M 210.585938 107.601562 L 239.542969 107.601562 L 239.542969 368.238281 L 210.585938 368.238281 Z M 210.585938 107.601562 " fill-opacity="1" fill-rule="nonzero"/></g><g clip-path="url(#e30b5aeca1)"><path fill="#00c2cb" d="M 211.402344 107.890625 L 239.140625 107.890625 L 239.140625 80.152344 Z M 211.402344 107.890625 " fill-opacity="1" fill-rule="nonzero"/></g><g clip-path="url(#dda129665d)"><path fill="#00c2cb" d="M 239.777344 80.152344 L 239.777344 107.890625 C 239.777344 108.347656 239.507812 108.621094 239.140625 108.621094 L 211.402344 108.621094 C 211.128906 108.621094 210.855469 108.4375 210.765625 108.164062 C 210.585938 107.984375 210.675781 107.621094 210.855469 107.4375 L 238.597656 79.699219 C 238.777344 79.515625 239.050781 79.425781 239.324219 79.515625 C 239.597656 79.699219 239.777344 79.878906 239.777344 80.152344 Z M 238.414062 107.253906 L 238.414062 81.882812 L 213.039062 107.253906 Z M 238.414062 107.253906 " fill-opacity="1" fill-rule="nonzero"/></g><g clip-path="url(#aa65c5997f)"><g clip-path="url(#e40b4aeb39)"><g clip-path="url(#41d58197be)"><path fill="#00c2cb" d="M 219.101562 348.613281 L 239.578125 369.089844 L 159.375 449.296875 L 138.898438 428.816406 Z M 219.101562 348.613281 " fill-opacity="1" fill-rule="nonzero"/></g></g></g><g clip-path="url(#011fa24d63)"><g clip-path="url(#3f4416d9a9)"><g clip-path="url(#f4a5cf2d79)"><path fill="#00c2cb" d="M 75.285156 363.828125 L 95.761719 343.351562 L 179.378906 426.96875 L 158.902344 447.445312 Z M 75.285156 363.828125 " fill-opacity="1" fill-rule="nonzero"/></g></g></g><g clip-path="url(#9f348522de)"><path fill="#00c2cb" d="M 373.886719 363.894531 L 346.144531 363.894531 L 346.144531 391.632812 Z M 373.886719 363.894531 " fill-opacity="1" fill-rule="nonzero"/></g><g clip-path="url(#239a5cc9b6)"><path fill="#00c2cb" d="M 345.507812 391.632812 L 345.507812 363.894531 C 345.507812 363.4375 345.78125 363.167969 346.144531 363.167969 L 373.886719 363.167969 C 374.160156 363.167969 374.429688 363.347656 374.523438 363.621094 C 374.703125 363.804688 374.613281 364.167969 374.429688 364.347656 L 346.691406 392.089844 C 346.511719 392.269531 346.238281 392.359375 345.964844 392.269531 C 345.691406 392.089844 345.507812 391.90625 345.507812 391.632812 Z M 346.875 364.53125 L 346.875 389.90625 L 372.25 364.53125 Z M 346.875 364.53125 " fill-opacity="1" fill-rule="nonzero"/></g></svg>