<svg width="195" height="274" viewBox="0 0 195 274" fill="currentColor" xmlns="http://www.w3.org/2000/svg">
<line x1="16.5" y1="36" x2="16.5" y2="215" stroke="white"/>
<line x1="177.5" y1="36" x2="177.5" y2="210.5" stroke="white"/>
<line x1="0.5" y1="1" x2="0.5" y2="221" stroke="white"/>
<line x1="193.5" y1="1" x2="193.5" y2="210" stroke="white"/>
<line x1="104.5" y1="8" x2="104.5" y2="221" stroke="white"/>
<line x1="89.5" y1="8" x2="89.5" y2="215" stroke="white"/>
<line x1="52.6464" y1="252.123" x2="89.8403" y2="214.929" stroke="#FFFBFB"/>
<line x1="16.3536" y1="214.646" x2="53.5474" y2="251.84" stroke="#FFFBFB"/>
<line x1="51.9433" y1="272.947" x2="104.269" y2="220.621" stroke="#FFFBFB"/>
<line x1="0.353553" y1="220.646" x2="51.9541" y2="272.247" stroke="#FFFBFB"/>
<line x1="89.1464" y1="8.71751" x2="96.9246" y2="0.939332" stroke="#FFFBFB"/>
<line x1="185.646" y1="217.425" x2="193.778" y2="209.293" stroke="#FFFBFB"/>
<line x1="96.8536" y1="0.646447" x2="104.632" y2="8.42462" stroke="#FFFBFB"/>
<line x1="177.354" y1="209.646" x2="185.485" y2="217.778" stroke="#FFFBFB"/>
<line x1="0.707107" y1="1" x2="89.0955" y2="89.3883" stroke="#FFFBFB" stroke-linecap="square"/>
<line x1="105" y1="89.3883" x2="193.388" y2="0.999998" stroke="#FFFBFB" stroke-linecap="square"/>
<line x1="16.7071" y1="36" x2="89.1256" y2="108.418" stroke="#FFFBFB" stroke-linecap="square"/>
<line x1="105" y1="108.418" x2="177.418" y2="36" stroke="#FFFBFB" stroke-linecap="square"/>
</svg>
